<svg width="900" height="760" viewBox="0 0 900 760" fill="none" xmlns="http://www.w3.org/2000/svg" role="img" aria-labelledby="title desc">
  <title id="title">Elefante de baby shower</title>
  <desc id="desc">Elefante tierno en tonos grises con detalles amarillos levantando la trompa.</desc>
  <path d="M680 102c-16-45 44-77 76-39 19 23 10 65-20 79 15 25 4 58-24 71-31 14-65-8-68-41-35 5-62-26-53-60 8-31 47-45 74-27 4 3 10 10 15 17z" fill="#F8D94A"/>
  <circle cx="724" cy="89" r="9" fill="#fff8bf"/>
  <circle cx="694" cy="157" r="12" fill="#fff8bf"/>
  <path d="M230 602c-44-18-74-54-79-97-7-61 38-118 101-128 22-79 96-137 186-137 102 0 186 75 194 171 59 13 101 62 101 119 0 67-59 122-132 122H313c-29 0-57-5-83-16v-34z" fill="#D9DADE"/>
  <path d="M252 377c-30 4-64 28-85 57-30 43-32 95-6 128 19 24 50 31 83 17 44-18 77-68 84-126 6-50-24-83-76-76z" fill="#C8C9CE"/>
  <path d="M248 415c-19 8-40 26-54 48-19 31-17 67 4 84 18 14 45 8 67-13 26-25 43-67 40-96-2-24-25-34-57-23z" fill="#B7B8BD"/>
  <path d="M608 415c47 2 86-30 86-73 0-45-44-81-96-78-23 1-41 13-41 27 0 13 13 23 31 22 21-1 38 11 38 28 0 16-15 29-34 29-21 0-35 11-35 25 0 13 19 19 51 20z" fill="#D9DADE"/>
  <path d="M612 414c38 0 72-22 88-54 7-15 8-31 5-42" stroke="#34323A" stroke-width="11" stroke-linecap="round"/>
  <path d="M335 636v58c0 19 15 34 34 34h10c19 0 34-15 34-34v-49" fill="#C8C9CE"/>
  <path d="M519 644v50c0 19 15 34 34 34h10c19 0 34-15 34-34v-62" fill="#C8C9CE"/>
  <path d="M336 691h77M520 691h76" stroke="#34323A" stroke-width="11" stroke-linecap="round"/>
  <path d="M222 592c41 38 99 53 158 53h219c79 0 132-47 132-115" stroke="#34323A" stroke-width="12" stroke-linecap="round"/>
  <path d="M249 377c22-77 95-133 182-133 87 0 162 57 186 136" stroke="#34323A" stroke-width="12" stroke-linecap="round"/>
  <path d="M270 404c-47 10-88 58-89 110" stroke="#34323A" stroke-width="11" stroke-linecap="round"/>
  <path d="M482 414c-14 23-11 52 7 71 22 23 62 20 87-6" stroke="#34323A" stroke-width="10" stroke-linecap="round"/>
  <circle cx="522" cy="357" r="13" fill="#34323A"/>
  <path d="M371 345c34-31 88-30 122 0" stroke="#F8D94A" stroke-width="14" stroke-linecap="round"/>
  <path d="M529 314c11-16 34-17 47-3" stroke="#34323A" stroke-width="9" stroke-linecap="round"/>
  <path d="M168 235c24-58 117-54 137 6 7 21 1 43-12 59 24 8 40 31 37 56-4 35-38 59-74 52-13 32-51 48-84 35-33-14-49-50-36-82-38-5-64-39-57-75 7-34 42-57 78-49 4 1 8 0 11-2z" fill="#F8D94A"/>
  <circle cx="211" cy="251" r="13" fill="#FFF7BB"/>
  <circle cx="255" cy="365" r="14" fill="#FFF7BB"/>
  <path d="M141 394c-19 27-49 33-68 16-18-17-17-47 2-68" stroke="#B7B8BD" stroke-width="14" stroke-linecap="round"/>
  <path d="M302 233c20-23 55-27 79-9" stroke="#B7B8BD" stroke-width="14" stroke-linecap="round"/>
  <path d="M626 160c-25-29-73-30-101-5" stroke="#B7B8BD" stroke-width="14" stroke-linecap="round"/>
  <path d="M316 213c-11-33 12-69 47-72" stroke="#F8D94A" stroke-width="18" stroke-linecap="round"/>
  <path d="M599 207c20-32 65-41 96-20" stroke="#F8D94A" stroke-width="18" stroke-linecap="round"/>
</svg>
